<svg width="1600" height="1600" viewBox="0 0 1600 1600" fill="none" xmlns="http://www.w3.org/2000/svg">
<rect x="762" y="985" width="75" height="300" rx="37.5" fill="#5D5D5D"/>
<rect x="361" y="590.952" width="75" height="250" rx="37.5" transform="rotate(-60 361 590.952)" fill="#5D5D5D"/>
<path d="M768.75 361.344C787.785 350.354 811.169 350.182 830.34 360.828L831.25 361.344L1164.26 553.608C1183.6 564.773 1195.51 585.406 1195.51 607.735V992.265C1195.51 1014.24 1183.97 1034.58 1165.16 1045.86L1164.26 1046.39L831.25 1238.66C811.912 1249.82 788.088 1249.82 768.75 1238.66L435.737 1046.39C416.4 1035.23 404.487 1014.59 404.487 992.265V607.735C404.487 585.406 416.4 564.773 435.737 553.608L768.75 361.344Z" stroke="#5D5D5D" stroke-width="75"/>
<rect x="1265.64" y="488.132" width="75.0944" height="537.676" transform="rotate(60 1265.64 488.132)" fill="#F97315"/>
<path d="M1373.48 451.735C1385.48 454.017 1392.65 466.435 1388.63 477.972L1337.59 624.235C1331.56 641.516 1307.41 642.29 1300.28 625.43L1262.55 536.125C1261.9 534.603 1261.07 533.166 1260.08 531.848L1201.61 454.514C1190.57 439.914 1203.31 419.385 1221.29 422.804L1373.48 451.735Z" fill="#F97315"/>
<path d="M833.037 635C811.369 635.042 790.103 640.848 771.423 651.823C752.742 662.798 737.321 678.545 726.744 697.448C717.642 693.021 707.654 690.714 697.531 690.701C681.658 690.741 666.316 696.417 654.241 706.715C642.166 717.013 634.144 731.265 631.606 746.927C614.845 753.94 600.529 765.747 590.458 780.865C580.387 795.984 575.01 813.739 575 831.902C575.02 856.342 584.749 879.772 602.048 897.043C619.347 914.314 642.8 924.01 667.25 924C671.12 923.961 674.984 923.68 678.819 923.157H949.194C992.413 918.059 1024.96 880.837 1025 837.15V836.981C1024.98 816.977 1018 797.602 1005.25 782.184C992.497 766.766 974.772 756.268 955.119 752.493C953.953 720.917 940.578 691.024 917.808 669.106C895.038 647.188 864.649 634.974 833.037 635Z" fill="#F1F1F1"/>
</svg>
